<?xml version="1.0" encoding="UTF-8"?>
<svg xmlns="http://www.w3.org/2000/svg" xmlns:xlink="http://www.w3.org/1999/xlink" width="26px" height="26px" viewBox="0 0 26 26" version="1.1">
<g id="surface1">
<path style=" stroke:none;fill-rule:nonzero;fill:rgb(100%,100%,100%);fill-opacity:1;" d="M 13 0 C 20.179688 0 26 5.820312 26 13 C 26 20.179688 20.179688 26 13 26 C 5.820312 26 0 20.179688 0 13 C 0 5.820312 5.820312 0 13 0 Z M 13 0 "/>
<path style=" stroke:none;fill-rule:nonzero;fill:rgb(0%,0%,0%);fill-opacity:1;" d="M 10.96875 4.875 C 9.675781 4.875 8.628906 5.8125 8.367188 7.03125 C 6.789062 7.316406 5.550781 8.632812 5.550781 10.292969 C 5.550781 10.457031 5.570312 10.605469 5.59375 10.757812 C 5.15625 11.398438 4.875 12.15625 4.875 13 C 4.875 14.214844 5.480469 15.238281 6.335938 15.984375 C 6.273438 16.222656 6.230469 16.464844 6.230469 16.722656 C 6.230469 18.398438 7.601562 19.769531 9.277344 19.769531 C 9.292969 19.769531 9.300781 19.769531 9.316406 19.769531 C 9.710938 20.535156 10.394531 21.125 11.308594 21.125 C 11.96875 21.125 12.570312 20.847656 13 20.40625 C 13.429688 20.847656 14.03125 21.125 14.691406 21.125 C 15.605469 21.125 16.289062 20.535156 16.679688 19.769531 C 16.699219 19.769531 16.707031 19.769531 16.722656 19.769531 C 18.3125 19.769531 19.617188 18.53125 19.75 16.976562 L 19.769531 16.976562 C 19.769531 16.933594 19.753906 16.894531 19.75 16.851562 C 19.753906 16.808594 19.769531 16.765625 19.769531 16.722656 C 19.769531 16.472656 19.679688 16.257812 19.621094 16.027344 C 20.5 15.28125 21.125 14.238281 21.125 13 C 21.125 12.15625 20.84375 11.398438 20.40625 10.757812 C 20.429688 10.605469 20.449219 10.457031 20.449219 10.292969 C 20.449219 8.632812 19.210938 7.316406 17.632812 7.03125 C 17.371094 5.8125 16.324219 4.875 15.03125 4.875 C 14.21875 4.875 13.496094 5.253906 13 5.828125 C 12.503906 5.253906 11.78125 4.875 10.96875 4.875 Z M 10.96875 6.230469 C 11.726562 6.230469 12.324219 6.828125 12.324219 7.582031 L 12.324219 8.9375 C 12.324219 10.066406 11.421875 10.96875 10.292969 10.96875 L 10.292969 12.324219 C 11.058594 12.324219 11.753906 12.058594 12.324219 11.625 L 12.324219 18.753906 C 12.324219 19.324219 11.875 19.769531 11.308594 19.769531 C 10.800781 19.769531 10.398438 19.421875 10.3125 18.945312 L 10.1875 18.289062 L 9.53125 18.394531 C 9.410156 18.414062 9.335938 18.417969 9.277344 18.417969 C 8.335938 18.417969 7.582031 17.664062 7.582031 16.722656 C 7.582031 16.515625 7.617188 16.320312 7.6875 16.132812 C 7.695312 16.117188 7.703125 16.105469 7.710938 16.089844 C 7.917969 15.566406 8.375 15.1875 8.9375 15.074219 L 8.664062 13.742188 C 7.957031 13.882812 7.34375 14.257812 6.90625 14.796875 C 6.480469 14.324219 6.230469 13.691406 6.230469 13 C 6.230469 12.363281 6.445312 11.800781 6.820312 11.328125 L 7.03125 11.074219 L 6.96875 10.734375 C 6.933594 10.578125 6.90625 10.4375 6.90625 10.292969 C 6.90625 9.164062 7.808594 8.261719 8.9375 8.261719 L 9.613281 8.261719 L 9.613281 7.582031 C 9.613281 6.828125 10.210938 6.230469 10.96875 6.230469 Z M 15.03125 6.230469 C 15.789062 6.230469 16.386719 6.828125 16.386719 7.582031 L 16.386719 8.261719 L 17.0625 8.261719 C 18.191406 8.261719 19.09375 9.164062 19.09375 10.292969 C 19.09375 10.4375 19.066406 10.578125 19.03125 10.734375 L 18.964844 11.074219 L 19.179688 11.328125 C 19.554688 11.800781 19.769531 12.363281 19.769531 13 C 19.769531 13.8125 19.425781 14.535156 18.859375 15.03125 C 18.398438 14.621094 17.808594 14.355469 17.148438 14.355469 C 16.507812 14.355469 15.929688 14.582031 15.476562 14.96875 L 16.34375 16.003906 C 16.5625 15.820312 16.832031 15.707031 17.148438 15.707031 C 17.800781 15.707031 18.320312 16.199219 18.394531 16.828125 C 18.339844 17.722656 17.628906 18.417969 16.722656 18.417969 C 16.664062 18.417969 16.589844 18.414062 16.46875 18.394531 L 15.8125 18.289062 L 15.6875 18.945312 C 15.601562 19.421875 15.199219 19.769531 14.691406 19.769531 C 14.125 19.769531 13.675781 19.324219 13.675781 18.753906 L 13.675781 11.625 C 14.246094 12.058594 14.941406 12.324219 15.707031 12.324219 L 15.707031 10.96875 C 14.578125 10.96875 13.675781 10.066406 13.675781 8.9375 L 13.675781 7.582031 C 13.675781 6.828125 14.273438 6.230469 15.03125 6.230469 Z M 15.03125 6.230469 "/>
</g>
</svg>
