<?xml version="1.0" encoding="UTF-8"?>
<svg xmlns="http://www.w3.org/2000/svg" xmlns:xlink="http://www.w3.org/1999/xlink" width="24" height="24" viewBox="0 0 24 24">
<path fill-rule="nonzero" fill="rgb(100%, 100%, 100%)" fill-opacity="1" d="M 12 -3 C 20.285156 -3 27 3.714844 27 12 C 27 20.285156 20.285156 27 12 27 C 3.714844 27 -3 20.285156 -3 12 C -3 3.714844 3.714844 -3 12 -3 Z M 12 -3 "/>
<path fill-rule="nonzero" fill="rgb(0%, 0%, 0%)" fill-opacity="1" d="M 17.503906 21.003906 C 15.570312 21.003906 14.003906 19.4375 14.003906 17.503906 C 14.003906 15.570312 15.570312 14.003906 17.503906 14.003906 C 19.4375 14.003906 21.003906 15.570312 21.003906 17.503906 C 21.003906 19.4375 19.4375 21.003906 17.503906 21.003906 Z M 17.503906 19.003906 C 18.332031 19.003906 19.003906 18.332031 19.003906 17.503906 C 19.003906 16.675781 18.332031 16.003906 17.503906 16.003906 C 16.675781 16.003906 16.003906 16.675781 16.003906 17.503906 C 16.003906 18.332031 16.675781 19.003906 17.503906 19.003906 Z M 6.503906 10.003906 C 4.570312 10.003906 3.003906 8.4375 3.003906 6.503906 C 3.003906 4.570312 4.570312 3.003906 6.503906 3.003906 C 8.4375 3.003906 10.003906 4.570312 10.003906 6.503906 C 10.003906 8.4375 8.4375 10.003906 6.503906 10.003906 Z M 6.503906 8.003906 C 7.332031 8.003906 8.003906 7.332031 8.003906 6.503906 C 8.003906 5.675781 7.332031 5.003906 6.503906 5.003906 C 5.675781 5.003906 5.003906 5.675781 5.003906 6.503906 C 5.003906 7.332031 5.675781 8.003906 6.503906 8.003906 Z M 19.074219 3.515625 L 20.488281 4.933594 L 4.933594 20.488281 L 3.519531 19.074219 Z M 19.074219 3.515625 "/>
</svg>
