<?xml version="1.0" encoding="UTF-8"?>
<svg xmlns="http://www.w3.org/2000/svg" xmlns:xlink="http://www.w3.org/1999/xlink" width="26px" height="26px" viewBox="0 0 26 26" version="1.1">
<g id="surface1">
<path style=" stroke:none;fill-rule:nonzero;fill:rgb(100%,100%,100%);fill-opacity:1;" d="M 13 0 C 20.179688 0 26 5.820312 26 13 C 26 20.179688 20.179688 26 13 26 C 5.820312 26 0 20.179688 0 13 C 0 5.820312 5.820312 0 13 0 Z M 13 0 "/>
<path style="fill-rule:nonzero;fill:rgb(0%,0%,0%);fill-opacity:1;stroke-width:0.00141293;stroke-linecap:butt;stroke-linejoin:miter;stroke:rgb(0%,0%,0%);stroke-opacity:1;stroke-miterlimit:4;" d="M 77.955885 109.963302 C 73.914094 109.963302 70.644999 113.232397 70.644999 117.274188 C 70.644999 121.315979 73.914094 124.585075 77.955885 124.585075 L 133.976294 124.585075 C 138.018085 124.585075 141.287181 121.315979 141.287181 117.274188 C 141.287181 113.232397 138.018085 109.963302 133.976294 109.963302 Z M 77.955885 109.963302 " transform="matrix(0.131439,0,0,0.131439,3.714474,3.714474)"/>
<path style="fill-rule:nonzero;fill:rgb(0%,0%,0%);fill-opacity:1;stroke-width:0.00141293;stroke-linecap:butt;stroke-linejoin:miter;stroke:rgb(0%,0%,0%);stroke-opacity:1;stroke-miterlimit:4;" d="M 0.00281643 44.195044 C 0.00281643 48.236835 3.271912 51.50593 7.313703 51.50593 L 26.8094 51.50593 L 26.8094 71.001627 C 26.8094 75.043418 30.078495 78.312513 34.120286 78.312513 C 38.132358 78.312513 41.401453 75.043418 41.401453 71.001627 L 41.401453 51.50593 L 63.334112 51.50593 C 67.375903 51.50593 70.644999 48.236835 70.644999 44.195044 C 70.644999 40.153253 67.375903 36.884158 63.334112 36.884158 L 41.401453 36.884158 L 41.401453 12.544256 C 41.401453 8.502465 38.132358 5.233369 34.090567 5.233369 C 30.078495 5.233369 26.8094 8.502465 26.8094 12.544256 L 26.8094 36.884158 L 7.313703 36.884158 C 3.271912 36.884158 0.00281643 40.153253 0.00281643 44.195044 Z M 0.00281643 44.195044 " transform="matrix(0.131439,0,0,0.131439,3.714474,3.714474)"/>
<path style="fill-rule:nonzero;fill:rgb(0%,0%,0%);fill-opacity:1;stroke-width:0.00141293;stroke-linecap:butt;stroke-linejoin:miter;stroke:rgb(0%,0%,0%);stroke-opacity:1;stroke-miterlimit:4;" d="M 131.420456 17.269585 C 128.567427 14.416556 123.960974 14.416556 121.078227 17.269585 L 14.773184 123.604346 C 11.920156 126.457375 11.920156 131.063827 14.773184 133.916856 C 16.199699 135.343371 18.071999 136.056628 19.944299 136.056628 C 21.78688 136.056628 23.65918 135.343371 25.085695 133.916856 L 131.420456 27.611814 C 134.273485 24.758785 134.273485 20.122613 131.420456 17.269585 Z M 131.420456 17.269585 " transform="matrix(0.131439,0,0,0.131439,3.714474,3.714474)"/>
</g>
</svg>
