<?xml version="1.0" encoding="UTF-8"?>
<svg xmlns="http://www.w3.org/2000/svg" xmlns:xlink="http://www.w3.org/1999/xlink" width="26px" height="26px" viewBox="0 0 26 26" version="1.1">
<g id="surface1">
<path style=" stroke:none;fill-rule:nonzero;fill:rgb(100%,100%,100%);fill-opacity:1;" d="M 13 0 C 20.179688 0 26 5.820312 26 13 C 26 20.179688 20.179688 26 13 26 C 5.820312 26 0 20.179688 0 13 C 0 5.820312 5.820312 0 13 0 Z M 13 0 "/>
<path style="fill:none;stroke-width:2;stroke-linecap:round;stroke-linejoin:round;stroke:rgb(0%,0%,0%);stroke-opacity:1;stroke-miterlimit:4;" d="M 3 3 L 21.000001 21.000001 M 17.001563 9.998438 L 17.001563 8.001563 C 17.001563 5.240625 14.760938 3 12 3 C 11.029688 3 10.120313 3.276563 9.351563 3.754688 M 7.082813 7.082813 C 7.026563 7.382813 6.998438 7.6875 6.998438 8.001563 L 6.998438 10.026563 M 19.560938 19.560938 C 19.275001 20.034376 18.857813 20.418751 18.360938 20.671876 C 17.718751 21.000001 16.879688 21.000001 15.201563 21.000001 L 8.798438 21.000001 C 7.120313 21.000001 6.28125 21.000001 5.639063 20.671876 C 5.071875 20.385938 4.6125 19.926563 4.326563 19.364063 C 3.998438 18.721876 3.998438 17.878126 3.998438 16.200001 L 3.998438 14.798438 C 3.998438 13.120313 3.998438 12.28125 4.326563 11.639063 C 4.6125 11.071875 5.071875 10.6125 5.639063 10.326563 C 5.995313 10.14375 6.4125 10.064063 6.998438 10.026563 M 20.001563 14.400001 C 19.996876 12.984376 19.973438 12.225 19.673438 11.639063 C 19.387501 11.071875 18.928126 10.6125 18.360938 10.326563 C 17.775001 10.026563 17.015626 10.003125 15.600001 9.998438 M 9.998438 9.998438 L 8.798438 9.998438 C 8.053125 9.998438 7.471875 9.998438 6.998438 10.026563 " transform="matrix(0.833333,0,0,0.833333,3,3)"/>
</g>
</svg>
