<?xml version="1.0" encoding="UTF-8"?>
<svg xmlns="http://www.w3.org/2000/svg" xmlns:xlink="http://www.w3.org/1999/xlink" width="24" height="24" viewBox="0 0 24 24">
<path fill-rule="nonzero" fill="rgb(100%, 100%, 100%)" fill-opacity="1" d="M 12 -3 C 20.285156 -3 27 3.714844 27 12 C 27 20.285156 20.285156 27 12 27 C 3.714844 27 -3 20.285156 -3 12 C -3 3.714844 3.714844 -3 12 -3 Z M 12 -3 "/>
<path fill-rule="nonzero" fill="rgb(0%, 0%, 0%)" fill-opacity="1" d="M 17.207031 2.292969 L 15.792969 3.707031 L 18.085938 6 L 13 6 L 13 8 L 18.085938 8 L 15.792969 10.292969 L 17.207031 11.707031 L 21.914062 7 Z M 9.5 7 C 9.5 5.621094 8.382812 4.5 7 4.5 C 5.621094 4.5 4.5 5.621094 4.5 7 C 4.5 8.378906 5.621094 9.5 7 9.5 C 8.382812 9.5 9.5 8.378906 9.5 7 Z M 11.5 7 C 11.5 9.484375 9.484375 11.5 7 11.5 C 4.515625 11.5 2.5 9.484375 2.5 7 C 2.5 4.515625 4.515625 2.5 7 2.5 C 9.484375 2.5 11.5 4.515625 11.5 7 Z M 5.914062 18 L 8.207031 20.292969 L 6.792969 21.707031 L 2.085938 17 L 6.792969 12.292969 L 8.207031 13.707031 L 5.914062 16 L 11 16 L 11 18 Z M 15 19 L 19 19 L 19 15 L 15 15 Z M 13 14 C 13 13.449219 13.449219 13 14 13 L 20 13 C 20.550781 13 21 13.449219 21 14 L 21 20 C 21 20.550781 20.550781 21 20 21 L 14 21 C 13.449219 21 13 20.550781 13 20 Z M 13 14 "/>
</svg>
