<?xml version="1.0" encoding="UTF-8"?>
<svg xmlns="http://www.w3.org/2000/svg" xmlns:xlink="http://www.w3.org/1999/xlink" width="26px" height="26px" viewBox="0 0 26 26" version="1.1">
<g id="surface1">
<path style=" stroke:none;fill-rule:nonzero;fill:rgb(100%,100%,100%);fill-opacity:1;" d="M 13 0 C 20.179688 0 26 5.820312 26 13 C 26 20.179688 20.179688 26 13 26 C 5.820312 26 0 20.179688 0 13 C 0 5.820312 5.820312 0 13 0 Z M 13 0 "/>
<path style="fill:none;stroke-width:1.5;stroke-linecap:round;stroke-linejoin:round;stroke:rgb(0%,0%,0%);stroke-opacity:1;stroke-miterlimit:4;" d="M 21.501563 5.348438 C 21.501563 6.257813 21.070313 7.06875 20.409376 7.589063 C 19.931251 7.96875 19.321876 8.198438 18.651563 8.198438 C 17.071876 8.198438 15.801563 6.928125 15.801563 5.348438 C 15.801563 4.678125 16.031251 4.078125 16.410938 3.590625 L 16.420313 3.590625 C 16.931251 2.929688 17.742188 2.498438 18.651563 2.498438 C 20.231251 2.498438 21.501563 3.76875 21.501563 5.348438 Z M 21.501563 5.348438 " transform="matrix(0.833333,0,0,0.833333,3,3)"/>
<path style="fill:none;stroke-width:1.5;stroke-linecap:round;stroke-linejoin:round;stroke:rgb(0%,0%,0%);stroke-opacity:1;stroke-miterlimit:4;" d="M 8.198438 5.348438 C 8.198438 6.928125 6.928125 8.198438 5.348438 8.198438 C 4.678125 8.198438 4.078125 7.96875 3.590625 7.589063 C 2.929688 7.06875 2.498438 6.257813 2.498438 5.348438 C 2.498438 3.76875 3.76875 2.498438 5.348438 2.498438 C 6.257813 2.498438 7.06875 2.929688 7.589063 3.590625 C 7.96875 4.078125 8.198438 4.678125 8.198438 5.348438 Z M 8.198438 5.348438 " transform="matrix(0.833333,0,0,0.833333,3,3)"/>
<path style="fill:none;stroke-width:1.5;stroke-linecap:round;stroke-linejoin:round;stroke:rgb(0%,0%,0%);stroke-opacity:1;stroke-miterlimit:4;" d="M 21.501563 18.651563 C 21.501563 20.231251 20.231251 21.501563 18.651563 21.501563 C 17.742188 21.501563 16.931251 21.070313 16.420313 20.409376 L 16.410938 20.409376 C 16.031251 19.931251 15.801563 19.321876 15.801563 18.651563 C 15.801563 17.071876 17.071876 15.801563 18.651563 15.801563 C 19.321876 15.801563 19.921876 16.031251 20.409376 16.410938 L 20.409376 16.420313 C 21.070313 16.931251 21.501563 17.742188 21.501563 18.651563 Z M 21.501563 18.651563 " transform="matrix(0.833333,0,0,0.833333,3,3)"/>
<path style="fill:none;stroke-width:1.5;stroke-linecap:round;stroke-linejoin:round;stroke:rgb(0%,0%,0%);stroke-opacity:1;stroke-miterlimit:4;" d="M 8.198438 18.651563 C 8.198438 19.321876 7.96875 19.921876 7.589063 20.409376 C 7.06875 21.079688 6.257813 21.501563 5.348438 21.501563 C 3.76875 21.501563 2.498438 20.231251 2.498438 18.651563 C 2.498438 17.742188 2.929688 16.931251 3.590625 16.420313 L 3.590625 16.410938 C 4.06875 16.031251 4.678125 15.801563 5.348438 15.801563 C 6.928125 15.801563 8.198438 17.071876 8.198438 18.651563 Z M 8.198438 18.651563 " transform="matrix(0.833333,0,0,0.833333,3,3)"/>
<path style="fill:none;stroke-width:1.5;stroke-linecap:round;stroke-linejoin:round;stroke:rgb(0%,0%,0%);stroke-opacity:1;stroke-miterlimit:4;" d="M 21.501563 12 C 21.501563 13.598438 21.107813 15.089063 20.409376 16.410938 C 19.931251 16.031251 19.321876 15.801563 18.651563 15.801563 C 17.071876 15.801563 15.801563 17.071876 15.801563 18.651563 C 15.801563 19.321876 16.031251 19.921876 16.410938 20.409376 C 15.089063 21.107813 13.598438 21.501563 12 21.501563 C 10.410938 21.501563 8.910938 21.107813 7.589063 20.409376 C 7.96875 19.931251 8.198438 19.321876 8.198438 18.651563 C 8.198438 17.071876 6.928125 15.801563 5.348438 15.801563 C 4.678125 15.801563 4.078125 16.031251 3.590625 16.410938 C 2.892188 15.089063 2.498438 13.598438 2.498438 12 C 2.498438 10.410938 2.892188 8.910938 3.590625 7.589063 C 4.078125 7.96875 4.678125 8.198438 5.348438 8.198438 C 6.928125 8.198438 8.198438 6.928125 8.198438 5.348438 C 8.198438 4.678125 7.96875 4.078125 7.589063 3.590625 C 8.910938 2.892188 10.410938 2.498438 12 2.498438 C 13.598438 2.498438 15.089063 2.892188 16.410938 3.590625 C 16.031251 4.06875 15.801563 4.678125 15.801563 5.348438 C 15.801563 6.928125 17.071876 8.198438 18.651563 8.198438 C 19.321876 8.198438 19.921876 7.96875 20.409376 7.589063 C 21.107813 8.910938 21.501563 10.410938 21.501563 12 Z M 21.501563 12 " transform="matrix(0.833333,0,0,0.833333,3,3)"/>
</g>
</svg>
