<?xml version="1.0" encoding="UTF-8"?>
<svg xmlns="http://www.w3.org/2000/svg" xmlns:xlink="http://www.w3.org/1999/xlink" width="26px" height="26px" viewBox="0 0 26 26" version="1.1">
<g id="surface1">
<path style=" stroke:none;fill-rule:nonzero;fill:rgb(100%,100%,100%);fill-opacity:1;" d="M 13 0 C 20.179688 0 26 5.820312 26 13 C 26 20.179688 20.179688 26 13 26 C 5.820312 26 0 20.179688 0 13 C 0 5.820312 5.820312 0 13 0 Z M 13 0 "/>
<path style=" stroke:none;fill-rule:evenodd;fill:rgb(0%,0%,0%);fill-opacity:1;" d="M 15.011719 4.667969 L 19.667969 9.320312 L 19.667969 12.835938 C 19.160156 12.542969 18.597656 12.335938 18 12.234375 L 18 10.011719 L 14.320312 6.332031 L 8 6.332031 L 8 19.667969 L 12.835938 19.667969 C 13.222656 20.335938 13.761719 20.90625 14.402344 21.332031 L 6.332031 21.332031 L 6.332031 4.667969 Z M 18.320312 13 L 18.320312 13.890625 C 18.726562 14.035156 19.097656 14.253906 19.417969 14.527344 L 20.191406 14.082031 L 21.347656 16.085938 L 20.578125 16.53125 C 20.613281 16.738281 20.632812 16.949219 20.632812 17.167969 C 20.632812 17.382812 20.613281 17.59375 20.578125 17.800781 L 21.347656 18.246094 L 20.191406 20.253906 L 19.417969 19.804688 C 19.097656 20.082031 18.726562 20.296875 18.320312 20.441406 L 18.320312 21.332031 L 16.003906 21.332031 L 16.003906 20.441406 C 15.597656 20.296875 15.226562 20.082031 14.90625 19.804688 L 14.132812 20.253906 L 12.976562 18.246094 L 13.746094 17.800781 C 13.710938 17.59375 13.691406 17.382812 13.691406 17.167969 C 13.691406 16.949219 13.710938 16.738281 13.746094 16.53125 L 12.976562 16.085938 L 14.132812 14.082031 L 14.90625 14.527344 C 15.226562 14.253906 15.597656 14.035156 16.003906 13.890625 L 16.003906 13 Z M 17.164062 15.777344 C 16.394531 15.777344 15.773438 16.398438 15.773438 17.167969 C 15.773438 17.933594 16.394531 18.554688 17.164062 18.554688 C 17.929688 18.554688 18.550781 17.933594 18.550781 17.167969 C 18.550781 16.398438 17.929688 15.777344 17.164062 15.777344 Z M 17.164062 15.777344 "/>
</g>
</svg>
