<?xml version="1.0" encoding="UTF-8"?>
<svg xmlns="http://www.w3.org/2000/svg" xmlns:xlink="http://www.w3.org/1999/xlink" width="24" height="24" viewBox="0 0 24 24">
<path fill-rule="nonzero" fill="rgb(100%, 100%, 100%)" fill-opacity="1" d="M 12 -3 C 20.285156 -3 27 3.714844 27 12 C 27 20.285156 20.285156 27 12 27 C 3.714844 27 -3 20.285156 -3 12 C -3 3.714844 3.714844 -3 12 -3 Z M 12 -3 "/>
<path fill-rule="nonzero" fill="rgb(0%, 0%, 0%)" fill-opacity="1" d="M 2 4 C 2 3.449219 2.449219 3 3 3 L 21 3 C 21.550781 3 22 3.449219 22 4 L 22 20 C 22 20.550781 21.550781 21 21 21 L 3 21 C 2.449219 21 2 20.550781 2 20 Z M 4 5 L 4 19 L 20 19 L 20 5 Z M 7 8 L 17 8 L 17 11 L 15 11 L 15 10 L 13 10 L 13 14 L 14.5 14 L 14.5 16 L 9.5 16 L 9.5 14 L 11 14 L 11 10 L 9 10 L 9 11 L 7 11 Z M 7 8 "/>
</svg>
