<?xml version="1.0" encoding="UTF-8"?>
<svg xmlns="http://www.w3.org/2000/svg" xmlns:xlink="http://www.w3.org/1999/xlink" width="24" height="24" viewBox="0 0 24 24">
<path fill-rule="nonzero" fill="rgb(100%, 100%, 100%)" fill-opacity="1" d="M 12 -3 C 20.285156 -3 27 3.714844 27 12 C 27 20.285156 20.285156 27 12 27 C 3.714844 27 -3 20.285156 -3 12 C -3 3.714844 3.714844 -3 12 -3 Z M 12 -3 "/>
<path fill-rule="nonzero" fill="rgb(0%, 0%, 0%)" fill-opacity="1" d="M 3 12 C 3 10.066406 4.566406 8.5 6.5 8.5 C 7.703125 8.5 8.519531 8.933594 9.199219 9.613281 C 9.925781 10.339844 10.484375 11.332031 11.125 12.484375 L 11.160156 12.546875 C 11.761719 13.628906 12.441406 14.855469 13.386719 15.800781 C 14.394531 16.808594 15.703125 17.5 17.5 17.5 C 20.539062 17.5 23 15.039062 23 12 C 23 8.960938 20.539062 6.5 17.5 6.5 C 15.839844 6.5 14.351562 7.234375 13.34375 8.398438 C 13.789062 9.054688 14.15625 9.707031 14.464844 10.257812 C 15.066406 9.207031 16.203125 8.5 17.5 8.5 C 19.433594 8.5 21 10.066406 21 12 C 21 13.933594 19.433594 15.5 17.5 15.5 C 16.296875 15.5 15.480469 15.066406 14.800781 14.386719 C 14.074219 13.660156 13.515625 12.667969 12.875 11.515625 L 12.839844 11.453125 C 12.238281 10.371094 11.558594 9.144531 10.613281 8.199219 C 9.605469 7.191406 8.296875 6.5 6.5 6.5 C 3.460938 6.5 1 8.960938 1 12 C 1 15.039062 3.460938 17.5 6.5 17.5 C 8.160156 17.5 9.648438 16.765625 10.65625 15.601562 C 10.210938 14.945312 9.84375 14.292969 9.535156 13.742188 C 8.933594 14.792969 7.796875 15.5 6.5 15.5 C 4.566406 15.5 3 13.933594 3 12 Z M 3 12 "/>
</svg>
