<?xml version="1.0" encoding="UTF-8"?>
<svg xmlns="http://www.w3.org/2000/svg" xmlns:xlink="http://www.w3.org/1999/xlink" width="26px" height="26px" viewBox="0 0 26 26" version="1.1">
<g id="surface1">
<path style=" stroke:none;fill-rule:nonzero;fill:rgb(100%,100%,100%);fill-opacity:1;" d="M 13 0 C 20.179688 0 26 5.820312 26 13 C 26 20.179688 20.179688 26 13 26 C 5.820312 26 0 20.179688 0 13 C 0 5.820312 5.820312 0 13 0 Z M 13 0 "/>
<path style="fill-rule:evenodd;fill:rgb(0%,0%,0%);fill-opacity:1;stroke-width:0.12;stroke-linecap:butt;stroke-linejoin:miter;stroke:rgb(0%,0%,0%);stroke-opacity:1;stroke-miterlimit:4;" d="M 16.25048 3.751442 L 16.25048 5.437499 L 18.249518 7.03774 L 18.249518 3.751442 Z M 19.748797 8.239182 L 19.748797 3.499038 C 19.748797 2.807451 19.18846 2.252163 18.501922 2.252163 L 15.998076 2.252163 C 15.311537 2.252163 14.751201 2.807451 14.751201 3.499038 L 14.751201 4.241105 L 14.342307 3.91298 C 12.974278 2.817548 11.02572 2.817548 9.657691 3.91298 L 1.530288 10.414903 C 1.207211 10.672355 1.15673 11.146874 1.414182 11.469951 C 1.671634 11.793028 2.146153 11.843509 2.46923 11.586057 L 3.251682 10.960095 L 3.251682 21.248076 L 1.999759 21.248076 C 1.585817 21.248076 1.247596 21.586297 1.247596 22.000239 C 1.247596 22.414181 1.585817 22.752402 1.999759 22.752402 L 22.000239 22.752402 C 22.414181 22.752402 22.752402 22.414181 22.752402 22.000239 C 22.752402 21.586297 22.414181 21.248076 22.000239 21.248076 L 20.748316 21.248076 L 20.748316 10.960095 L 21.530768 11.586057 C 21.853845 11.843509 22.328364 11.793028 22.585816 11.469951 C 22.843268 11.146874 22.792787 10.672355 22.46971 10.414903 Z M 19.249037 9.758653 L 13.403364 5.084134 C 12.585576 4.427884 11.414422 4.427884 10.596634 5.084134 L 4.750961 9.758653 L 4.750961 21.248076 L 8.249278 21.248076 L 8.249278 16.952162 C 8.249278 16.285816 8.249278 15.715383 8.309855 15.256009 C 8.37548 14.761297 8.526922 14.291826 8.910576 13.908172 C 9.289182 13.524518 9.763701 13.378124 10.253365 13.312499 C 10.712739 13.251922 11.28822 13.251922 11.949518 13.251922 L 12.05048 13.251922 C 12.711778 13.251922 13.287259 13.251922 13.746634 13.312499 C 14.236297 13.378124 14.710816 13.524518 15.089422 13.908172 C 15.473076 14.291826 15.624518 14.761297 15.690143 15.256009 C 15.75072 15.715383 15.75072 16.285816 15.75072 16.952162 L 15.75072 21.248076 L 19.249037 21.248076 Z M 14.251441 21.248076 L 14.251441 16.997595 C 14.251441 16.270672 14.246393 15.801201 14.20096 15.452884 C 14.160576 15.129807 14.089903 15.028845 14.029326 14.968268 C 13.973797 14.912739 13.872835 14.842066 13.544711 14.796634 C 13.201441 14.751201 12.726922 14.751201 11.999999 14.751201 C 11.273076 14.751201 10.798557 14.751201 10.455288 14.796634 C 10.127163 14.842066 10.026201 14.912739 9.970672 14.968268 C 9.910095 15.028845 9.84447 15.129807 9.799038 15.452884 C 9.753605 15.801201 9.748557 16.270672 9.748557 16.997595 L 9.748557 21.248076 Z M 11.999999 8.249278 C 11.308413 8.249278 10.748076 8.809615 10.748076 9.501201 C 10.748076 10.192788 11.308413 10.748076 11.999999 10.748076 C 12.691586 10.748076 13.251922 10.192788 13.251922 9.501201 C 13.251922 8.809615 12.691586 8.249278 11.999999 8.249278 Z M 9.248797 9.501201 C 9.248797 7.98173 10.480528 6.749999 11.999999 6.749999 C 13.51947 6.749999 14.751201 7.98173 14.751201 9.501201 C 14.751201 11.020672 13.51947 12.252403 11.999999 12.252403 C 10.480528 12.252403 9.248797 11.020672 9.248797 9.501201 Z M 9.248797 9.501201 " transform="matrix(0.77381,0,0,0.77381,3.714286,3.714286)"/>
</g>
</svg>
