<?xml version="1.0" encoding="UTF-8"?>
<svg xmlns="http://www.w3.org/2000/svg" xmlns:xlink="http://www.w3.org/1999/xlink" width="26px" height="26px" viewBox="0 0 26 26" version="1.1">
<defs>
<filter id="alpha" filterUnits="objectBoundingBox" x="0%" y="0%" width="100%" height="100%">
  <feColorMatrix type="matrix" in="SourceGraphic" values="0 0 0 0 1 0 0 0 0 1 0 0 0 0 1 0 0 0 1 0"/>
</filter>
<mask id="mask0">
  <g filter="url(#alpha)">
<rect x="0" y="0" width="26" height="26" style="fill:rgb(0%,0%,0%);fill-opacity:0.4;stroke:none;"/>
  </g>
</mask>
<clipPath id="clip1">
  <rect x="0" y="0" width="26" height="26"/>
</clipPath>
<g id="surface5" clip-path="url(#clip1)">
<path style="fill-rule:nonzero;fill:rgb(0%,0%,0%);fill-opacity:1;stroke-width:0.00024;stroke-linecap:butt;stroke-linejoin:miter;stroke:rgb(0%,0%,0%);stroke-opacity:1;stroke-miterlimit:4;" d="M 16.069472 17.0519 L 14.297813 18.618029 L 9.710409 18.618029 L 7.93875 17.0519 C 6.911106 16.209231 6.911106 15.55976 7.688005 14.569111 L 10.807933 10.631178 C 11.029904 10.35988 11.280649 10.170794 11.547837 10.080361 C 11.839688 9.981707 12.160313 9.981707 12.448053 10.080361 C 12.719351 10.179015 12.970097 10.35988 13.187957 10.631178 L 16.307885 14.569111 C 17.088895 15.55976 17.060121 16.180457 16.069472 17.0519 Z M 16.069472 17.0519 " transform="matrix(0.950292,0,0,0.950292,1.596491,1.596491)"/>
</g>
</defs>
<g id="surface1">
<path style=" stroke:none;fill-rule:nonzero;fill:rgb(100%,100%,100%);fill-opacity:1;" d="M 13 0 C 20.179688 0 26 5.820312 26 13 C 26 20.179688 20.179688 26 13 26 C 5.820312 26 0 20.179688 0 13 C 0 5.820312 5.820312 0 13 0 Z M 13 0 "/>
<path style="fill-rule:nonzero;fill:rgb(0%,0%,0%);fill-opacity:1;stroke-width:0.00024;stroke-linecap:butt;stroke-linejoin:miter;stroke:rgb(0%,0%,0%);stroke-opacity:1;stroke-miterlimit:4;" d="M 12.517933 1.501587 L 11.519063 1.501587 C 10.688726 1.501587 10.018702 2.171611 10.018702 3.001947 L 10.018702 4.000817 C 10.018702 4.831154 10.688726 5.501178 11.519063 5.501178 L 12.517933 5.501178 C 13.34827 5.501178 14.018294 4.831154 14.018294 4.000817 L 14.018294 3.001947 C 14.018294 2.171611 13.34827 1.501587 12.517933 1.501587 Z M 12.517933 1.501587 " transform="matrix(0.950292,0,0,0.950292,1.596491,1.596491)"/>
<path style="fill-rule:nonzero;fill:rgb(0%,0%,0%);fill-opacity:1;stroke-width:0.00024;stroke-linecap:butt;stroke-linejoin:miter;stroke:rgb(0%,0%,0%);stroke-opacity:1;stroke-miterlimit:4;" d="M 4.268005 10.668173 L 3.269135 10.668173 C 2.438798 10.668173 1.768774 11.338197 1.768774 12.168534 L 1.768774 13.171515 C 1.768774 14.001851 2.438798 14.671875 3.269135 14.671875 L 4.268005 14.671875 C 5.098342 14.671875 5.768366 14.001851 5.768366 13.171515 L 5.768366 12.168534 C 5.768366 11.338197 5.09012 10.668173 4.268005 10.668173 Z M 4.268005 10.668173 " transform="matrix(0.950292,0,0,0.950292,1.596491,1.596491)"/>
<path style="fill-rule:nonzero;fill:rgb(0%,0%,0%);fill-opacity:1;stroke-width:0.00024;stroke-linecap:butt;stroke-linejoin:miter;stroke:rgb(0%,0%,0%);stroke-opacity:1;stroke-miterlimit:4;" d="M 20.730866 10.668173 L 19.731996 10.668173 C 18.901659 10.668173 18.231635 11.338197 18.231635 12.168534 L 18.231635 13.171515 C 18.231635 14.001851 18.901659 14.671875 19.731996 14.671875 L 20.730866 14.671875 C 21.561202 14.671875 22.231227 14.001851 22.231227 13.171515 L 22.231227 12.168534 C 22.231227 11.338197 21.561202 10.668173 20.730866 10.668173 Z M 20.730866 10.668173 " transform="matrix(0.950292,0,0,0.950292,1.596491,1.596491)"/>
<path style="fill-rule:nonzero;fill:rgb(0%,0%,0%);fill-opacity:1;stroke-width:0.00024;stroke-linecap:butt;stroke-linejoin:miter;stroke:rgb(0%,0%,0%);stroke-opacity:1;stroke-miterlimit:4;" d="M 3.750072 11.917789 C 3.339015 11.917789 3.001947 11.580722 3.001947 11.169664 C 3.001947 6.898774 6.199976 3.310241 10.437981 2.80875 C 10.840818 2.771755 11.218991 3.059495 11.268318 3.470553 C 11.321755 3.881611 11.021683 4.251563 10.610625 4.30089 C 7.128967 4.707837 4.498197 7.659231 4.498197 11.169664 C 4.498197 11.580722 4.16113 11.917789 3.750072 11.917789 Z M 3.750072 11.917789 " transform="matrix(0.950292,0,0,0.950292,1.596491,1.596491)"/>
<path style="fill-rule:nonzero;fill:rgb(0%,0%,0%);fill-opacity:1;stroke-width:0.00024;stroke-linecap:butt;stroke-linejoin:miter;stroke:rgb(0%,0%,0%);stroke-opacity:1;stroke-miterlimit:4;" d="M 20.249928 11.917789 C 19.838871 11.917789 19.497693 11.580722 19.497693 11.169664 C 19.497693 7.679784 16.887476 4.72839 13.430481 4.309111 C 13.019423 4.259784 12.727572 3.889832 12.78101 3.478774 C 12.830337 3.071827 13.20851 2.779976 13.619568 2.829303 C 17.828799 3.339015 21.010385 6.931659 21.010385 11.177885 C 20.998053 11.580722 20.669207 11.917789 20.249928 11.917789 Z M 20.249928 11.917789 " transform="matrix(0.950292,0,0,0.950292,1.596491,1.596491)"/>
<path style="fill-rule:nonzero;fill:rgb(0%,0%,0%);fill-opacity:1;stroke-width:0.00024;stroke-linecap:butt;stroke-linejoin:miter;stroke:rgb(0%,0%,0%);stroke-opacity:1;stroke-miterlimit:4;" d="M 13.290722 22.009255 L 10.721611 22.009255 C 9.800842 22.009255 9.118486 21.269352 9.29113 20.4719 L 9.710409 18.62214 L 14.297813 18.62214 L 14.721202 20.4719 C 14.910289 21.318678 14.269039 22.009255 13.290722 22.009255 Z M 13.290722 22.009255 " transform="matrix(0.950292,0,0,0.950292,1.596491,1.596491)"/>
<use xlink:href="#surface5" mask="url(#mask0)"/>
</g>
</svg>
