<svg xmlns="http://www.w3.org/2000/svg" width="16" height="16" fill="currentColor" class="bi bi-arrow-left-circle-fill" viewBox="-3 -3 22 22" transform="matrix(1, 0, 0, 1, 0, 0)"><g id="deeditor_bgCarrier" stroke-width="0">
  <rect id="dee_c_e" x="-3" y="-3" width="22" height="22" rx="38.4" fill="#000000" strokewidth="0"/>
</g>
  <path d="M8 0a8 8 0 1 0 0 16A8 8 0 0 0 8 0m3.5 7.5a.5.5 0 0 1 0 1H5.707l2.147 2.146a.5.5 0 0 1-.708.708l-3-3a.5.5 0 0 1 0-.708l3-3a.5.5 0 1 1 .708.708L5.707 7.5z" fill="#ffffff"/>
</svg>